<svg xmlns="http://www.w3.org/2000/svg" fill="none" viewBox="0 0 24 24" id="Arrow-Back-Ios--Streamline-Rounded-Material" height="24" width="24" style="background-color: #281985ff">
  <desc>
    Arrow Back Ios Streamline Icon: https://streamlinehq.com
  </desc>
  <path fill="#ffffff" d="m2.825 12.0001 7.875 7.875c0.18335 0.18335 0.275 0.4125 0.275 0.6875s-0.09165 0.5125 -0.275 0.7125c-0.2 0.2 -0.4375 0.3 -0.7125 0.3s-0.5125 -0.1 -0.7125 -0.3L1.05 13.0501c-0.15 -0.15 -0.258335 -0.31665 -0.325 -0.5 -0.066665 -0.1833 -0.1 -0.36665 -0.1 -0.55 0 -0.1833 0.033335 -0.36665 0.1 -0.55 0.066665 -0.1833 0.175 -0.35 0.325 -0.5L9.3 2.70011c0.2 -0.2 0.43335 -0.295835 0.7 -0.2875 0.26665 0.008335 0.5 0.1125 0.7 0.3125 0.18335 0.2 0.27915 0.433335 0.2875 0.7 0.00835 0.266665 -0.0875 0.5 -0.2875 0.7L2.825 12.0001Z" stroke-width="0.5"></path>
</svg>